<svg width="47.99999999999999" height="47.99999999999999" xmlns="http://www.w3.org/2000/svg">

 <g>
  <title>Layer 1</title>
  <path fill="#ffffff" id="svg_1" d="m27,43.95q-5.6,0 -9.3,-3.925q-3.7,-3.925 -3.7,-9.375l0,-1.75q-4.25,-0.55 -7.125,-3.775q-2.875,-3.225 -2.875,-7.625l0,-11.5l6,0l0,-2l3,0l0,7l-3,0l0,-2l-3,0l0,8.5q0,3.55 2.475,6.025q2.475,2.475 6.025,2.475q3.55,0 6.025,-2.475q2.475,-2.475 2.475,-6.025l0,-8.5l-3,0l0,2l-3,0l0,-7l3,0l0,2l6,0l0,11.5q0,4.4 -2.875,7.625q-2.875,3.225 -7.125,3.775l0,1.75q0,4.25 2.825,7.275q2.825,3.025 7.175,3.025q4.05,0 7.025,-3q2.975,-3 2.975,-7.3l0,-3.85q-1.75,-0.5 -2.875,-1.95t-1.125,-3.35q0,-2.3 1.6,-3.9t3.9,-1.6q2.3,0 3.9,1.6t1.6,3.9q0,1.9 -1.125,3.35q-1.125,1.45 -2.875,1.95l0,3.85q0,5.55 -3.825,9.425q-3.825,3.875 -9.175,3.875zm11.5,-19.95q1.05,0 1.775,-0.725q0.725,-0.725 0.725,-1.775q0,-1.05 -0.725,-1.775q-0.725,-0.725 -1.775,-0.725q-1.05,0 -1.775,0.725q-0.725,0.725 -0.725,1.775q0,1.05 0.725,1.775q0.725,0.725 1.775,0.725zm0,-2.5z"/>
 </g>
</svg>