<?xml version="1.0" encoding="utf-8"?>
<!-- Generator: Adobe Illustrator 24.1.2, SVG Export Plug-In . SVG Version: 6.00 Build 0)  -->
<svg version="1.1" xmlns="http://www.w3.org/2000/svg" x="0px" y="0px"
     viewBox="0 0 1080 1080" style="enable-background:new 0 0 1080 1080;" xml:space="preserve">
<style type="text/css">
	.st0{fill:#FFFFFF;}
	.st1{display:none;}
	.st2{display:inline;fill:#A4D2B3;}
	.st3{display:inline;fill:#95CDB2;}
</style>
    <g id="Слой_2">
	<path class="st0" d="M968,972.4H112c-36.6,0-66.2-29.7-66.2-66.2V173.8c0-36.6,29.7-66.2,66.2-66.2H968c36.6,0,66.2,29.7,66.2,66.2
		v732.4C1034.2,942.8,1004.5,972.4,968,972.4z"/>
</g>
    <g id="Слой_1">
	<g>
		<g>
			<path d="M812.4,612.1c-92.3,0-177.9,0-270.5,0c0,101.3,0,200.9,0,302.8c-42,0-77.8,0-118.2,0c0-61.3,0-119.4,0-177.4
				c0-68.6,0-137.1,0.2-205.7c0.2-51.4,3.9-55.5,56.9-56c91.4-0.8,182.8-0.8,274.3-1.1c17.4-0.1,34.8,0,54.6,0c0-72.7,0-140.7,0-212
				c-188.4,0-375.8-1.1-568-1.1c0,216.4-0.9,433.8-0.9,652.5c-40.1,0-76.3,0-116.3,0c-1.2-24.1-3.3-46.6-3.3-69.1
				c0-210.8,0.3-421.6,0.7-632.3c0.1-61.6,13.2-75.6,73.5-75.7c226-0.3,451.2,0.7,677.2,0.7c49.2,0,67.7,16.2,67.9,65.6
				c1,224.7,0.3,449.5,1.1,674.2c0.1,28.7-10.3,42.4-39.5,41.6c-28.7-0.7-57.5-0.2-89.8-0.2C812.4,814.6,812.4,714.9,812.4,612.1z"
            />
		</g>
	</g>
        <g class="st1">
		<path class="st2" d="M344.7,361.5l-37.6,113.8h-48.3l122.9-361.7H438l123.4,361.7l-49.9,0.3l-38.6-114H344.7z M463.3,325
			l-35.4-104.1c-8-23.6-13.4-45.1-18.8-66H408c-5.4,21.5-11.3,43.5-18.2,65.5L354.3,325H463.3z"/>
	</g>
        <g class="st1">
		<path class="st3" d="M605.8,612l35.1,129c7.7,28.3,14.8,54.6,19.7,80.8h1.6c6-25.7,14.8-53,23.6-80.3L729.1,612h40.6l41.1,126.9
			c9.9,30.4,17.5,57.2,23.6,82.9h1.6c4.4-25.7,11.5-52.5,20.3-82.4L894,612h47.7l-85.5,253.9h-43.8l-40.6-121.2
			c-9.3-28.3-17-53.5-23.6-83.4h-1.1c-6.6,30.4-14.8,56.7-24.1,83.9l-42.7,120.7h-43.8l-80-253.9H605.8z"/>
	</g>
</g>
</svg>
