<svg version="1.1" xmlns="http://www.w3.org/2000/svg" xmlns:xlink="http://www.w3.org/1999/xlink" width="216.51611328125" height="64"><defs/><g><text fill="#eeeeee" stroke="none" font-family="Arial" font-size="24px" font-style="normal" font-weight="normal" text-decoration="none" x="0" y="0">UNREGISTERED</text><text fill="#eeeeee" stroke="none" font-family="Arial" font-size="24px" font-style="normal" font-weight="normal" text-decoration="none" x="0" y="30">UNREGISTERED</text><text fill="#eeeeee" stroke="none" font-family="Arial" font-size="24px" font-style="normal" font-weight="normal" text-decoration="none" x="0" y="60">UNREGISTERED</text><text fill="#eeeeee" stroke="none" font-family="Arial" font-size="24px" font-style="normal" font-weight="normal" text-decoration="none" x="200" y="0">UNREGISTERED</text><text fill="#eeeeee" stroke="none" font-family="Arial" font-size="24px" font-style="normal" font-weight="normal" text-decoration="none" x="200" y="30">UNREGISTERED</text><text fill="#eeeeee" stroke="none" font-family="Arial" font-size="24px" font-style="normal" font-weight="normal" text-decoration="none" x="200" y="60">UNREGISTERED</text><g transform="translate(-870,-470) scale(1,1)"><rect fill="#C0C0C0" stroke="none" x="887" y="487" width="196.51611328125" height="44" opacity="0.2"/></g><g transform="translate(-870,-470) scale(1,1)"><rect fill="#ffffff" stroke="none" x="880" y="480" width="196.51611328125" height="44"/></g><g transform="translate(-870,-470) scale(1,1)"><path fill="none" stroke="#000000" d="M 880 480 L 1076.51611328125 480 L 1076.51611328125 524 L 880 524 L 880 480 Z Z" stroke-miterlimit="10"/></g><g transform="translate(-870,-470) scale(1,1)"><path fill="none" stroke="#000000" d="M 880 505 L 1076.51611328125 505" stroke-miterlimit="10"/></g><g transform="translate(-870,-470) scale(1,1)"><path fill="none" stroke="#000000" d="M 880 515 L 1076.51611328125 515" stroke-miterlimit="10"/></g><g transform="translate(-870,-470) scale(1,1)"><g><path fill="none" stroke="none"/><text fill="#000000" stroke="none" font-family="Arial" font-size="13px" font-style="normal" font-weight="bold" text-decoration="none" x="884.5" y="498">раздел Repositories в работе</text></g></g></g></svg>