<svg version="1.1" xmlns="http://www.w3.org/2000/svg" xmlns:xlink="http://www.w3.org/1999/xlink" width="199.9296875" height="64"><defs/><g><text fill="#eeeeee" stroke="none" font-family="Arial" font-size="24px" font-style="normal" font-weight="normal" text-decoration="none" x="0" y="0">UNREGISTERED</text><text fill="#eeeeee" stroke="none" font-family="Arial" font-size="24px" font-style="normal" font-weight="normal" text-decoration="none" x="0" y="30">UNREGISTERED</text><text fill="#eeeeee" stroke="none" font-family="Arial" font-size="24px" font-style="normal" font-weight="normal" text-decoration="none" x="0" y="60">UNREGISTERED</text><g transform="translate(-486,-702) scale(1,1)"><rect fill="#C0C0C0" stroke="none" x="503" y="719" width="179.9296875" height="44" opacity="0.2"/></g><g transform="translate(-486,-702) scale(1,1)"><rect fill="#ffffff" stroke="none" x="496" y="712" width="179.9296875" height="44"/></g><g transform="translate(-486,-702) scale(1,1)"><path fill="none" stroke="#000000" d="M 496 712 L 675.9296875 712 L 675.9296875 756 L 496 756 L 496 712 Z Z" stroke-miterlimit="10"/></g><g transform="translate(-486,-702) scale(1,1)"><path fill="none" stroke="#000000" d="M 496 737 L 675.9296875 737" stroke-miterlimit="10"/></g><g transform="translate(-486,-702) scale(1,1)"><path fill="none" stroke="#000000" d="M 496 747 L 675.9296875 747" stroke-miterlimit="10"/></g><g transform="translate(-486,-702) scale(1,1)"><g><path fill="none" stroke="none"/><text fill="#000000" stroke="none" font-family="Arial" font-size="13px" font-style="normal" font-weight="bold" text-decoration="none" x="500.5" y="730">раздел UseCases в работе</text></g></g></g></svg>