<svg version="1.1" xmlns="http://www.w3.org/2000/svg" xmlns:xlink="http://www.w3.org/1999/xlink" width="729.0498046875" height="660"><defs/><g><text fill="#eeeeee" stroke="none" font-family="Arial" font-size="24px" font-style="normal" font-weight="normal" text-decoration="none" x="0" y="0">UNREGISTERED</text><text fill="#eeeeee" stroke="none" font-family="Arial" font-size="24px" font-style="normal" font-weight="normal" text-decoration="none" x="0" y="30">UNREGISTERED</text><text fill="#eeeeee" stroke="none" font-family="Arial" font-size="24px" font-style="normal" font-weight="normal" text-decoration="none" x="0" y="60">UNREGISTERED</text><text fill="#eeeeee" stroke="none" font-family="Arial" font-size="24px" font-style="normal" font-weight="normal" text-decoration="none" x="0" y="90">UNREGISTERED</text><text fill="#eeeeee" stroke="none" font-family="Arial" font-size="24px" font-style="normal" font-weight="normal" text-decoration="none" x="0" y="120">UNREGISTERED</text><text fill="#eeeeee" stroke="none" font-family="Arial" font-size="24px" font-style="normal" font-weight="normal" text-decoration="none" x="0" y="150">UNREGISTERED</text><text fill="#eeeeee" stroke="none" font-family="Arial" font-size="24px" font-style="normal" font-weight="normal" text-decoration="none" x="0" y="180">UNREGISTERED</text><text fill="#eeeeee" stroke="none" font-family="Arial" font-size="24px" font-style="normal" font-weight="normal" text-decoration="none" x="0" y="210">UNREGISTERED</text><text fill="#eeeeee" stroke="none" font-family="Arial" font-size="24px" font-style="normal" font-weight="normal" text-decoration="none" x="0" y="240">UNREGISTERED</text><text fill="#eeeeee" stroke="none" font-family="Arial" font-size="24px" font-style="normal" font-weight="normal" text-decoration="none" x="0" y="270">UNREGISTERED</text><text fill="#eeeeee" stroke="none" font-family="Arial" font-size="24px" font-style="normal" font-weight="normal" text-decoration="none" x="0" y="300">UNREGISTERED</text><text fill="#eeeeee" stroke="none" font-family="Arial" font-size="24px" font-style="normal" font-weight="normal" text-decoration="none" x="0" y="330">UNREGISTERED</text><text fill="#eeeeee" stroke="none" font-family="Arial" font-size="24px" font-style="normal" font-weight="normal" text-decoration="none" x="0" y="360">UNREGISTERED</text><text fill="#eeeeee" stroke="none" font-family="Arial" font-size="24px" font-style="normal" font-weight="normal" text-decoration="none" x="0" y="390">UNREGISTERED</text><text fill="#eeeeee" stroke="none" font-family="Arial" font-size="24px" font-style="normal" font-weight="normal" text-decoration="none" x="0" y="420">UNREGISTERED</text><text fill="#eeeeee" stroke="none" font-family="Arial" font-size="24px" font-style="normal" font-weight="normal" text-decoration="none" x="0" y="450">UNREGISTERED</text><text fill="#eeeeee" stroke="none" font-family="Arial" font-size="24px" font-style="normal" font-weight="normal" text-decoration="none" x="0" y="480">UNREGISTERED</text><text fill="#eeeeee" stroke="none" font-family="Arial" font-size="24px" font-style="normal" font-weight="normal" text-decoration="none" x="0" y="510">UNREGISTERED</text><text fill="#eeeeee" stroke="none" font-family="Arial" font-size="24px" font-style="normal" font-weight="normal" text-decoration="none" x="0" y="540">UNREGISTERED</text><text fill="#eeeeee" stroke="none" font-family="Arial" font-size="24px" font-style="normal" font-weight="normal" text-decoration="none" x="0" y="570">UNREGISTERED</text><text fill="#eeeeee" stroke="none" font-family="Arial" font-size="24px" font-style="normal" font-weight="normal" text-decoration="none" x="0" y="600">UNREGISTERED</text><text fill="#eeeeee" stroke="none" font-family="Arial" font-size="24px" font-style="normal" font-weight="normal" text-decoration="none" x="0" y="630">UNREGISTERED</text><text fill="#eeeeee" stroke="none" font-family="Arial" font-size="24px" font-style="normal" font-weight="normal" text-decoration="none" x="200" y="0">UNREGISTERED</text><text fill="#eeeeee" stroke="none" font-family="Arial" font-size="24px" font-style="normal" font-weight="normal" text-decoration="none" x="200" y="30">UNREGISTERED</text><text fill="#eeeeee" stroke="none" font-family="Arial" font-size="24px" font-style="normal" font-weight="normal" text-decoration="none" x="200" y="60">UNREGISTERED</text><text fill="#eeeeee" stroke="none" font-family="Arial" font-size="24px" font-style="normal" font-weight="normal" text-decoration="none" x="200" y="90">UNREGISTERED</text><text fill="#eeeeee" stroke="none" font-family="Arial" font-size="24px" font-style="normal" font-weight="normal" text-decoration="none" x="200" y="120">UNREGISTERED</text><text fill="#eeeeee" stroke="none" font-family="Arial" font-size="24px" font-style="normal" font-weight="normal" text-decoration="none" x="200" y="150">UNREGISTERED</text><text fill="#eeeeee" stroke="none" font-family="Arial" font-size="24px" font-style="normal" font-weight="normal" text-decoration="none" x="200" y="180">UNREGISTERED</text><text fill="#eeeeee" stroke="none" font-family="Arial" font-size="24px" font-style="normal" font-weight="normal" text-decoration="none" x="200" y="210">UNREGISTERED</text><text fill="#eeeeee" stroke="none" font-family="Arial" font-size="24px" font-style="normal" font-weight="normal" text-decoration="none" x="200" y="240">UNREGISTERED</text><text fill="#eeeeee" stroke="none" font-family="Arial" font-size="24px" font-style="normal" font-weight="normal" text-decoration="none" x="200" y="270">UNREGISTERED</text><text fill="#eeeeee" stroke="none" font-family="Arial" font-size="24px" font-style="normal" font-weight="normal" text-decoration="none" x="200" y="300">UNREGISTERED</text><text fill="#eeeeee" stroke="none" font-family="Arial" font-size="24px" font-style="normal" font-weight="normal" text-decoration="none" x="200" y="330">UNREGISTERED</text><text fill="#eeeeee" stroke="none" font-family="Arial" font-size="24px" font-style="normal" font-weight="normal" text-decoration="none" x="200" y="360">UNREGISTERED</text><text fill="#eeeeee" stroke="none" font-family="Arial" font-size="24px" font-style="normal" font-weight="normal" text-decoration="none" x="200" y="390">UNREGISTERED</text><text fill="#eeeeee" stroke="none" font-family="Arial" font-size="24px" font-style="normal" font-weight="normal" text-decoration="none" x="200" y="420">UNREGISTERED</text><text fill="#eeeeee" stroke="none" font-family="Arial" font-size="24px" font-style="normal" font-weight="normal" text-decoration="none" x="200" y="450">UNREGISTERED</text><text fill="#eeeeee" stroke="none" font-family="Arial" font-size="24px" font-style="normal" font-weight="normal" text-decoration="none" x="200" y="480">UNREGISTERED</text><text fill="#eeeeee" stroke="none" font-family="Arial" font-size="24px" font-style="normal" font-weight="normal" text-decoration="none" x="200" y="510">UNREGISTERED</text><text fill="#eeeeee" stroke="none" font-family="Arial" font-size="24px" font-style="normal" font-weight="normal" text-decoration="none" x="200" y="540">UNREGISTERED</text><text fill="#eeeeee" stroke="none" font-family="Arial" font-size="24px" font-style="normal" font-weight="normal" text-decoration="none" x="200" y="570">UNREGISTERED</text><text fill="#eeeeee" stroke="none" font-family="Arial" font-size="24px" font-style="normal" font-weight="normal" text-decoration="none" x="200" y="600">UNREGISTERED</text><text fill="#eeeeee" stroke="none" font-family="Arial" font-size="24px" font-style="normal" font-weight="normal" text-decoration="none" x="200" y="630">UNREGISTERED</text><text fill="#eeeeee" stroke="none" font-family="Arial" font-size="24px" font-style="normal" font-weight="normal" text-decoration="none" x="400" y="0">UNREGISTERED</text><text fill="#eeeeee" stroke="none" font-family="Arial" font-size="24px" font-style="normal" font-weight="normal" text-decoration="none" x="400" y="30">UNREGISTERED</text><text fill="#eeeeee" stroke="none" font-family="Arial" font-size="24px" font-style="normal" font-weight="normal" text-decoration="none" x="400" y="60">UNREGISTERED</text><text fill="#eeeeee" stroke="none" font-family="Arial" font-size="24px" font-style="normal" font-weight="normal" text-decoration="none" x="400" y="90">UNREGISTERED</text><text fill="#eeeeee" stroke="none" font-family="Arial" font-size="24px" font-style="normal" font-weight="normal" text-decoration="none" x="400" y="120">UNREGISTERED</text><text fill="#eeeeee" stroke="none" font-family="Arial" font-size="24px" font-style="normal" font-weight="normal" text-decoration="none" x="400" y="150">UNREGISTERED</text><text fill="#eeeeee" stroke="none" font-family="Arial" font-size="24px" font-style="normal" font-weight="normal" text-decoration="none" x="400" y="180">UNREGISTERED</text><text fill="#eeeeee" stroke="none" font-family="Arial" font-size="24px" font-style="normal" font-weight="normal" text-decoration="none" x="400" y="210">UNREGISTERED</text><text fill="#eeeeee" stroke="none" font-family="Arial" font-size="24px" font-style="normal" font-weight="normal" text-decoration="none" x="400" y="240">UNREGISTERED</text><text fill="#eeeeee" stroke="none" font-family="Arial" font-size="24px" font-style="normal" font-weight="normal" text-decoration="none" x="400" y="270">UNREGISTERED</text><text fill="#eeeeee" stroke="none" font-family="Arial" font-size="24px" font-style="normal" font-weight="normal" text-decoration="none" x="400" y="300">UNREGISTERED</text><text fill="#eeeeee" stroke="none" font-family="Arial" font-size="24px" font-style="normal" font-weight="normal" text-decoration="none" x="400" y="330">UNREGISTERED</text><text fill="#eeeeee" stroke="none" font-family="Arial" font-size="24px" font-style="normal" font-weight="normal" text-decoration="none" x="400" y="360">UNREGISTERED</text><text fill="#eeeeee" stroke="none" font-family="Arial" font-size="24px" font-style="normal" font-weight="normal" text-decoration="none" x="400" y="390">UNREGISTERED</text><text fill="#eeeeee" stroke="none" font-family="Arial" font-size="24px" font-style="normal" font-weight="normal" text-decoration="none" x="400" y="420">UNREGISTERED</text><text fill="#eeeeee" stroke="none" font-family="Arial" font-size="24px" font-style="normal" font-weight="normal" text-decoration="none" x="400" y="450">UNREGISTERED</text><text fill="#eeeeee" stroke="none" font-family="Arial" font-size="24px" font-style="normal" font-weight="normal" text-decoration="none" x="400" y="480">UNREGISTERED</text><text fill="#eeeeee" stroke="none" font-family="Arial" font-size="24px" font-style="normal" font-weight="normal" text-decoration="none" x="400" y="510">UNREGISTERED</text><text fill="#eeeeee" stroke="none" font-family="Arial" font-size="24px" font-style="normal" font-weight="normal" text-decoration="none" x="400" y="540">UNREGISTERED</text><text fill="#eeeeee" stroke="none" font-family="Arial" font-size="24px" font-style="normal" font-weight="normal" text-decoration="none" x="400" y="570">UNREGISTERED</text><text fill="#eeeeee" stroke="none" font-family="Arial" font-size="24px" font-style="normal" font-weight="normal" text-decoration="none" x="400" y="600">UNREGISTERED</text><text fill="#eeeeee" stroke="none" font-family="Arial" font-size="24px" font-style="normal" font-weight="normal" text-decoration="none" x="400" y="630">UNREGISTERED</text><text fill="#eeeeee" stroke="none" font-family="Arial" font-size="24px" font-style="normal" font-weight="normal" text-decoration="none" x="600" y="0">UNREGISTERED</text><text fill="#eeeeee" stroke="none" font-family="Arial" font-size="24px" font-style="normal" font-weight="normal" text-decoration="none" x="600" y="30">UNREGISTERED</text><text fill="#eeeeee" stroke="none" font-family="Arial" font-size="24px" font-style="normal" font-weight="normal" text-decoration="none" x="600" y="60">UNREGISTERED</text><text fill="#eeeeee" stroke="none" font-family="Arial" font-size="24px" font-style="normal" font-weight="normal" text-decoration="none" x="600" y="90">UNREGISTERED</text><text fill="#eeeeee" stroke="none" font-family="Arial" font-size="24px" font-style="normal" font-weight="normal" text-decoration="none" x="600" y="120">UNREGISTERED</text><text fill="#eeeeee" stroke="none" font-family="Arial" font-size="24px" font-style="normal" font-weight="normal" text-decoration="none" x="600" y="150">UNREGISTERED</text><text fill="#eeeeee" stroke="none" font-family="Arial" font-size="24px" font-style="normal" font-weight="normal" text-decoration="none" x="600" y="180">UNREGISTERED</text><text fill="#eeeeee" stroke="none" font-family="Arial" font-size="24px" font-style="normal" font-weight="normal" text-decoration="none" x="600" y="210">UNREGISTERED</text><text fill="#eeeeee" stroke="none" font-family="Arial" font-size="24px" font-style="normal" font-weight="normal" text-decoration="none" x="600" y="240">UNREGISTERED</text><text fill="#eeeeee" stroke="none" font-family="Arial" font-size="24px" font-style="normal" font-weight="normal" text-decoration="none" x="600" y="270">UNREGISTERED</text><text fill="#eeeeee" stroke="none" font-family="Arial" font-size="24px" font-style="normal" font-weight="normal" text-decoration="none" x="600" y="300">UNREGISTERED</text><text fill="#eeeeee" stroke="none" font-family="Arial" font-size="24px" font-style="normal" font-weight="normal" text-decoration="none" x="600" y="330">UNREGISTERED</text><text fill="#eeeeee" stroke="none" font-family="Arial" font-size="24px" font-style="normal" font-weight="normal" text-decoration="none" x="600" y="360">UNREGISTERED</text><text fill="#eeeeee" stroke="none" font-family="Arial" font-size="24px" font-style="normal" font-weight="normal" text-decoration="none" x="600" y="390">UNREGISTERED</text><text fill="#eeeeee" stroke="none" font-family="Arial" font-size="24px" font-style="normal" font-weight="normal" text-decoration="none" x="600" y="420">UNREGISTERED</text><text fill="#eeeeee" stroke="none" font-family="Arial" font-size="24px" font-style="normal" font-weight="normal" text-decoration="none" x="600" y="450">UNREGISTERED</text><text fill="#eeeeee" stroke="none" font-family="Arial" font-size="24px" font-style="normal" font-weight="normal" text-decoration="none" x="600" y="480">UNREGISTERED</text><text fill="#eeeeee" stroke="none" font-family="Arial" font-size="24px" font-style="normal" font-weight="normal" text-decoration="none" x="600" y="510">UNREGISTERED</text><text fill="#eeeeee" stroke="none" font-family="Arial" font-size="24px" font-style="normal" font-weight="normal" text-decoration="none" x="600" y="540">UNREGISTERED</text><text fill="#eeeeee" stroke="none" font-family="Arial" font-size="24px" font-style="normal" font-weight="normal" text-decoration="none" x="600" y="570">UNREGISTERED</text><text fill="#eeeeee" stroke="none" font-family="Arial" font-size="24px" font-style="normal" font-weight="normal" text-decoration="none" x="600" y="600">UNREGISTERED</text><text fill="#eeeeee" stroke="none" font-family="Arial" font-size="24px" font-style="normal" font-weight="normal" text-decoration="none" x="600" y="630">UNREGISTERED</text><g transform="translate(-398,-158) scale(1,1)"><rect fill="#C0C0C0" stroke="none" x="527" y="175" width="256" height="130" opacity="0.2"/></g><g transform="translate(-398,-158) scale(1,1)"><rect fill="#ffffff" stroke="none" x="520" y="168" width="256" height="130"/></g><g transform="translate(-398,-158) scale(1,1)"><path fill="none" stroke="#000000" d="M 520 168 L 776 168 L 776 298 L 520 298 L 520 168 Z Z" stroke-miterlimit="10"/></g><g transform="translate(-398,-158) scale(1,1)"><path fill="none" stroke="#000000" d="M 520 193 L 776 193" stroke-miterlimit="10"/></g><g transform="translate(-398,-158) scale(1,1)"><path fill="none" stroke="#000000" d="M 520 261 L 776 261" stroke-miterlimit="10"/></g><g transform="translate(-398,-158) scale(1,1)"><g><path fill="none" stroke="none"/><text fill="#000000" stroke="none" font-family="Arial" font-size="13px" font-style="normal" font-weight="bold" text-decoration="none" x="625.970458984375" y="186">Human</text></g></g><g transform="translate(-398,-158) scale(1,1)"><g><path fill="none" stroke="none"/><text fill="#000000" stroke="none" font-family="Arial" font-size="13px" font-style="normal" font-weight="normal" text-decoration="none" x="525" y="209">+Name: string</text></g></g><g transform="translate(-398,-158) scale(1,1)"><g><path fill="none" stroke="none"/><text fill="#000000" stroke="none" font-family="Arial" font-size="13px" font-style="normal" font-weight="normal" text-decoration="none" x="525" y="224">+Surname: string</text></g></g><g transform="translate(-398,-158) scale(1,1)"><g><path fill="none" stroke="none"/><text fill="#000000" stroke="none" font-family="Arial" font-size="13px" font-style="normal" font-weight="normal" text-decoration="none" x="525" y="239">#_name: string</text></g></g><g transform="translate(-398,-158) scale(1,1)"><g><path fill="none" stroke="none"/><text fill="#000000" stroke="none" font-family="Arial" font-size="13px" font-style="normal" font-weight="normal" text-decoration="none" x="525" y="254">#_surname: string</text></g></g><g transform="translate(-398,-158) scale(1,1)"><g><path fill="none" stroke="none"/><text fill="#000000" stroke="none" font-family="Arial" font-size="13px" font-style="normal" font-weight="normal" text-decoration="none" x="525" y="277">+GetName(): string</text></g></g><g transform="translate(-398,-158) scale(1,1)"><g><path fill="none" stroke="none"/><text fill="#000000" stroke="none" font-family="Arial" font-size="13px" font-style="normal" font-weight="normal" text-decoration="none" x="525" y="292">+GetSurname(): string</text></g></g><g transform="translate(-398,-158) scale(1,1)"><rect fill="#C0C0C0" stroke="none" x="479" y="439" width="142.29443359375" height="130" opacity="0.2"/></g><g transform="translate(-398,-158) scale(1,1)"><rect fill="#ffffff" stroke="none" x="472" y="432" width="142.29443359375" height="130"/></g><g transform="translate(-398,-158) scale(1,1)"><path fill="none" stroke="#000000" d="M 472 432 L 614.29443359375 432 L 614.29443359375 562 L 472 562 L 472 432 Z Z" stroke-miterlimit="10"/></g><g transform="translate(-398,-158) scale(1,1)"><path fill="none" stroke="#000000" d="M 472 457 L 614.29443359375 457" stroke-miterlimit="10"/></g><g transform="translate(-398,-158) scale(1,1)"><path fill="none" stroke="#000000" d="M 472 525 L 614.29443359375 525" stroke-miterlimit="10"/></g><g transform="translate(-398,-158) scale(1,1)"><g><path fill="none" stroke="none"/><text fill="#000000" stroke="none" font-family="Arial" font-size="13px" font-style="normal" font-weight="bold" text-decoration="none" x="528.693603515625" y="450">User</text></g></g><g transform="translate(-398,-158) scale(1,1)"><g><path fill="none" stroke="none"/><text fill="#000000" stroke="none" font-family="Arial" font-size="13px" font-style="normal" font-weight="normal" text-decoration="none" x="477" y="473">+Login: string</text></g></g><g transform="translate(-398,-158) scale(1,1)"><g><path fill="none" stroke="none"/><text fill="#000000" stroke="none" font-family="Arial" font-size="13px" font-style="normal" font-weight="normal" text-decoration="none" x="477" y="488">+Password: string</text></g></g><g transform="translate(-398,-158) scale(1,1)"><g><path fill="none" stroke="none"/><text fill="#000000" stroke="none" font-family="Arial" font-size="13px" font-style="normal" font-weight="normal" text-decoration="none" x="477" y="503">#_login: string</text></g></g><g transform="translate(-398,-158) scale(1,1)"><g><path fill="none" stroke="none"/><text fill="#000000" stroke="none" font-family="Arial" font-size="13px" font-style="normal" font-weight="normal" text-decoration="none" x="477" y="518">#_password: string</text></g></g><g transform="translate(-398,-158) scale(1,1)"><g><path fill="none" stroke="none"/><text fill="#000000" stroke="none" font-family="Arial" font-size="13px" font-style="normal" font-weight="normal" text-decoration="none" x="477" y="541">+GetLogin(): string</text></g></g><g transform="translate(-398,-158) scale(1,1)"><g><path fill="none" stroke="none"/><text fill="#000000" stroke="none" font-family="Arial" font-size="13px" font-style="normal" font-weight="normal" text-decoration="none" x="477" y="556">+GetPassword(): string</text></g></g><g transform="translate(-398,-158) scale(1,1)"><path fill="none" stroke="#000000" d="M 569 431 L 622 299" stroke-miterlimit="10"/></g><g transform="translate(-398,-158) scale(1,1)"><path fill="#FFFFFF" stroke="none" d="M 622.2395141588522 320.99869616517555 L 622 299 L 606.6139348502564 314.7247893215727"/></g><g transform="translate(-398,-158) scale(1,1)"><path fill="none" stroke="#000000" d="M 622.2395141588522 320.99869616517555 L 622 299 L 606.6139348502564 314.7247893215727 L 622.2395141588522 320.99869616517555" stroke-miterlimit="10"/></g><g transform="translate(-398,-158) scale(1,1)"><rect fill="#C0C0C0" stroke="none" x="591" y="671" width="184.21435546875" height="130" opacity="0.2"/></g><g transform="translate(-398,-158) scale(1,1)"><rect fill="#ffffff" stroke="none" x="584" y="664" width="184.21435546875" height="130"/></g><g transform="translate(-398,-158) scale(1,1)"><path fill="none" stroke="#000000" d="M 584 664 L 768.21435546875 664 L 768.21435546875 794 L 584 794 L 584 664 Z Z" stroke-miterlimit="10"/></g><g transform="translate(-398,-158) scale(1,1)"><path fill="none" stroke="#000000" d="M 584 689 L 768.21435546875 689" stroke-miterlimit="10"/></g><g transform="translate(-398,-158) scale(1,1)"><path fill="none" stroke="#000000" d="M 584 742 L 768.21435546875 742" stroke-miterlimit="10"/></g><g transform="translate(-398,-158) scale(1,1)"><g><path fill="none" stroke="none"/><text fill="#000000" stroke="none" font-family="Arial" font-size="13px" font-style="normal" font-weight="bold" text-decoration="none" x="645.400390625" y="682">Employee</text></g></g><g transform="translate(-398,-158) scale(1,1)"><g><path fill="none" stroke="none"/><text fill="#000000" stroke="none" font-family="Arial" font-size="13px" font-style="normal" font-weight="normal" text-decoration="none" x="589" y="705">+Patients: Client[0..*]</text></g></g><g transform="translate(-398,-158) scale(1,1)"><g><path fill="none" stroke="none"/><text fill="#000000" stroke="none" font-family="Arial" font-size="13px" font-style="normal" font-weight="normal" text-decoration="none" x="589" y="720">+Category: Qualifications</text></g></g><g transform="translate(-398,-158) scale(1,1)"><g><path fill="none" stroke="none"/><text fill="#000000" stroke="none" font-family="Arial" font-size="13px" font-style="normal" font-weight="normal" text-decoration="none" x="589" y="735">+Speciality: string[0..*]</text></g></g><g transform="translate(-398,-158) scale(1,1)"><g><path fill="none" stroke="none"/><text fill="#000000" stroke="none" font-family="Arial" font-size="13px" font-style="normal" font-weight="normal" text-decoration="none" x="589" y="758">+GetPatients(): Client[0..*]</text></g></g><g transform="translate(-398,-158) scale(1,1)"><g><path fill="none" stroke="none"/><text fill="#000000" stroke="none" font-family="Arial" font-size="13px" font-style="normal" font-weight="normal" text-decoration="none" x="589" y="773">+GetCategory(): Qualifications</text></g></g><g transform="translate(-398,-158) scale(1,1)"><g><path fill="none" stroke="none"/><text fill="#000000" stroke="none" font-family="Arial" font-size="13px" font-style="normal" font-weight="normal" text-decoration="none" x="589" y="788">+GetSpeciality(): string[0..*]</text></g></g><g transform="translate(-398,-158) scale(1,1)"><rect fill="#C0C0C0" stroke="none" x="903" y="655" width="221.0498046875" height="160" opacity="0.2"/></g><g transform="translate(-398,-158) scale(1,1)"><rect fill="#ffffff" stroke="none" x="896" y="648" width="221.0498046875" height="160"/></g><g transform="translate(-398,-158) scale(1,1)"><path fill="none" stroke="#000000" d="M 896 648 L 1117.0498046875 648 L 1117.0498046875 808 L 896 808 L 896 648 Z Z" stroke-miterlimit="10"/></g><g transform="translate(-398,-158) scale(1,1)"><path fill="none" stroke="#000000" d="M 896 673 L 1117.0498046875 673" stroke-miterlimit="10"/></g><g transform="translate(-398,-158) scale(1,1)"><path fill="none" stroke="#000000" d="M 896 741 L 1117.0498046875 741" stroke-miterlimit="10"/></g><g transform="translate(-398,-158) scale(1,1)"><g><path fill="none" stroke="none"/><text fill="#000000" stroke="none" font-family="Arial" font-size="13px" font-style="normal" font-weight="bold" text-decoration="none" x="988.468994140625" y="666">Client</text></g></g><g transform="translate(-398,-158) scale(1,1)"><g><path fill="none" stroke="none"/><text fill="#000000" stroke="none" font-family="Arial" font-size="13px" font-style="normal" font-weight="normal" text-decoration="none" x="901" y="689">+Complaints: string</text></g></g><g transform="translate(-398,-158) scale(1,1)"><g><path fill="none" stroke="none"/><text fill="#000000" stroke="none" font-family="Arial" font-size="13px" font-style="normal" font-weight="normal" text-decoration="none" x="901" y="704">+MeetingTime: DateTime</text></g></g><g transform="translate(-398,-158) scale(1,1)"><g><path fill="none" stroke="none"/><text fill="#000000" stroke="none" font-family="Arial" font-size="13px" font-style="normal" font-weight="normal" text-decoration="none" x="901" y="719">+Analyzes: RefForAnalysis[0..*]</text></g></g><g transform="translate(-398,-158) scale(1,1)"><g><path fill="none" stroke="none"/><text fill="#000000" stroke="none" font-family="Arial" font-size="13px" font-style="normal" font-weight="normal" text-decoration="none" x="901" y="734">+Doctors: Employee[0..*]</text></g></g><g transform="translate(-398,-158) scale(1,1)"><g><path fill="none" stroke="none"/><text fill="#000000" stroke="none" font-family="Arial" font-size="13px" font-style="normal" font-weight="normal" text-decoration="none" x="901" y="757">+GetComplaints(): string</text></g></g><g transform="translate(-398,-158) scale(1,1)"><g><path fill="none" stroke="none"/><text fill="#000000" stroke="none" font-family="Arial" font-size="13px" font-style="normal" font-weight="normal" text-decoration="none" x="901" y="772">+GetMeetingTime(): DateTime</text></g></g><g transform="translate(-398,-158) scale(1,1)"><g><path fill="none" stroke="none"/><text fill="#000000" stroke="none" font-family="Arial" font-size="13px" font-style="normal" font-weight="normal" text-decoration="none" x="901" y="787">+GetAnalyzes(): RefForAnalysis[0..*]</text></g></g><g transform="translate(-398,-158) scale(1,1)"><g><path fill="none" stroke="none"/><text fill="#000000" stroke="none" font-family="Arial" font-size="13px" font-style="normal" font-weight="normal" text-decoration="none" x="901" y="802">+GetDoctors(): Employee[0..*]</text></g></g><g transform="translate(-398,-158) scale(1,1)"><path fill="none" stroke="#000000" d="M 947 647 L 696 299" stroke-miterlimit="10"/></g><g transform="translate(-398,-158) scale(1,1)"><path fill="#FFFFFF" stroke="none" d="M 714.7181609128723 310.5598638417507 L 696 299 L 701.0616804007379 320.40979662492816"/></g><g transform="translate(-398,-158) scale(1,1)"><path fill="none" stroke="#000000" d="M 714.7181609128723 310.5598638417507 L 696 299 L 701.0616804007379 320.40979662492816 L 714.7181609128723 310.5598638417507" stroke-miterlimit="10"/></g><g transform="translate(-398,-158) scale(1,1)"><path fill="none" stroke="#000000" d="M 638 663 L 581 563" stroke-miterlimit="10"/></g><g transform="translate(-398,-158) scale(1,1)"><path fill="#FFFFFF" stroke="none" d="M 598.3794417393532 576.4890698281396 L 581 563 L 583.7509083597569 584.8273338545096"/></g><g transform="translate(-398,-158) scale(1,1)"><path fill="none" stroke="#000000" d="M 598.3794417393532 576.4890698281396 L 581 563 L 583.7509083597569 584.8273338545096 L 598.3794417393532 576.4890698281396" stroke-miterlimit="10"/></g><g transform="translate(-398,-158) scale(1,1)"><rect fill="#C0C0C0" stroke="none" x="415" y="679" width="50.919921875" height="44" opacity="0.2"/></g><g transform="translate(-398,-158) scale(1,1)"><rect fill="#ffffff" stroke="none" x="408" y="672" width="50.919921875" height="44"/></g><g transform="translate(-398,-158) scale(1,1)"><path fill="none" stroke="#000000" d="M 408 672 L 458.919921875 672 L 458.919921875 716 L 408 716 L 408 672 Z Z" stroke-miterlimit="10"/></g><g transform="translate(-398,-158) scale(1,1)"><path fill="none" stroke="#000000" d="M 408 697 L 458.919921875 697" stroke-miterlimit="10"/></g><g transform="translate(-398,-158) scale(1,1)"><path fill="none" stroke="#000000" d="M 408 707 L 458.919921875 707" stroke-miterlimit="10"/></g><g transform="translate(-398,-158) scale(1,1)"><g><path fill="none" stroke="none"/><text fill="#000000" stroke="none" font-family="Arial" font-size="13px" font-style="normal" font-weight="bold" text-decoration="none" x="413.239501953125" y="690">Admin</text></g></g><g transform="translate(-398,-158) scale(1,1)"><path fill="none" stroke="#000000" d="M 446 671 L 506 563" stroke-miterlimit="10"/></g><g transform="translate(-398,-158) scale(1,1)"><path fill="#FFFFFF" stroke="none" d="M 503.4886987378244 584.8561974270593 L 506 563 L 488.76957643628765 576.678907259539"/></g><g transform="translate(-398,-158) scale(1,1)"><path fill="none" stroke="#000000" d="M 503.4886987378244 584.8561974270593 L 506 563 L 488.76957643628765 576.678907259539 L 503.4886987378244 584.8561974270593" stroke-miterlimit="10"/></g><g transform="translate(-398,-158) scale(1,1)"><path fill="none" stroke="#000000" d="M 769 696 L 816 680 L 895 700" stroke-miterlimit="10"/></g><g transform="translate(-398,-158) scale(1,1)"><path fill="#FFFFFF" stroke="none" d="M 884.1150288772376 701.5866328045983 L 895 700 L 886.1812442906904 693.4250819214594 L 873.6728397602733 694.6007189266514"/></g><g transform="translate(-398,-158) scale(1,1)"><path fill="none" stroke="#000000" d="M 884.1150288772376 701.5866328045983 L 895 700 L 886.1812442906904 693.4250819214594 L 873.6728397602733 694.6007189266514 L 884.1150288772376 701.5866328045983" stroke-miterlimit="10"/></g><g transform="translate(-398,-158) scale(1,1)"><path fill="none" stroke="#000000" d="M 895 728 L 769 729" stroke-miterlimit="10"/></g><g transform="translate(-398,-158) scale(1,1)"><path fill="#FFFFFF" stroke="none" d="M 779.12894698971 724.709961203014 L 769 729 L 779.1957626276052 733.1287315778009 L 790.9993071629897 728.8254023241033"/></g><g transform="translate(-398,-158) scale(1,1)"><path fill="none" stroke="#000000" d="M 779.12894698971 724.709961203014 L 769 729 L 779.1957626276052 733.1287315778009 L 790.9993071629897 728.8254023241033 L 779.12894698971 724.709961203014" stroke-miterlimit="10"/></g></g></svg>